# Blender v2.74 (sub 0) OBJ File: 'bookyellow.blend'
# www.blender.org
mtllib bookyellow.mtl
o Cube
v 0.960839 -0.235039 -1.519027
v 0.959952 -0.235039 1.519027
v -1.000000 -0.235039 1.496661
v -1.000000 -0.235039 -1.495826
v 0.960839 0.235039 -1.519026
v 0.959951 0.235039 1.519028
v -1.000000 0.205940 1.496661
v -1.000000 0.205940 -1.495826
v 0.960207 -0.166315 -1.532221
v 0.960207 -0.166315 1.547215
v -0.912991 -0.166315 1.547214
v -0.912990 -0.166315 -1.532221
v 0.960207 0.166315 -1.532220
v 0.960206 0.166315 1.547216
v -0.912991 0.166315 1.547214
v -0.912991 0.166315 -1.532221
v -0.952956 -0.192280 -1.519028
v -0.952956 -0.192280 1.519027
v -0.952956 0.205179 -1.519027
v -0.952956 0.205179 1.519027
v -0.922871 -0.192908 -1.519028
v -0.922871 -0.192908 1.519027
v -0.922871 0.205617 -1.519027
v -0.922871 0.205617 1.519027
vt 0.545321 0.289501
vt 0.545320 0.789501
vt 0.537415 0.785820
vt 0.537415 0.293320
vt 0.534617 0.789501
vt 0.526608 0.785683
vt 0.526608 0.293182
vt 0.534617 0.289501
vt 0.387252 0.500000
vt 0.398954 0.500000
vt 0.398954 1.000000
vt 0.387252 1.000000
vt 0.603434 0.508099
vt 0.535759 0.508099
vt 0.535630 0.500000
vt 0.610715 0.500000
vt 0.369766 1.000069
vt 0.220334 1.000069
vt 0.220334 0.019905
vt 0.369766 0.019905
vt 0.615799 0.819365
vt 0.683474 0.819365
vt 0.690755 0.827488
vt 0.615670 0.827489
vt 0.318914 0.500000
vt 0.318914 1.000000
vt 0.000000 1.000000
vt 0.000000 0.500000
vt 1.000000 0.500000
vt 0.681055 0.500000
vt 0.681055 0.000000
vt 1.000000 0.000000
vt 0.064812 0.962795
vt 0.008175 0.962795
vt 0.008175 0.462795
vt 0.064811 0.462795
vt 0.065305 0.446795
vt 0.008668 0.446795
vt 0.008668 0.140354
vt 0.065305 0.140355
vt 0.530675 1.000000
vt 0.474039 1.000000
vt 0.474039 0.500000
vt 0.530675 0.500000
vt 0.121941 0.140355
vt 0.121941 0.446676
vt 0.065305 0.446676
vt 0.615725 0.814445
vt 0.683581 0.814445
vt 0.603541 0.513020
vt 0.535685 0.513020
vt 0.539740 0.789501
vt 0.539740 0.289501
vt 0.550444 0.289501
vt 0.550444 0.789501
vt 0.877918 0.289501
vt 0.877918 0.789501
vt 0.867160 0.789501
vt 0.867160 0.289501
vt 0.610715 0.827587
vt 0.530675 0.827587
vt 0.690754 0.500000
vt 0.330616 0.500000
vt 0.330616 1.000000
vn 0.672600 -0.740000 0.000000
vn 0.016200 0.999900 -0.000000
vn 1.000000 0.002700 0.000100
vn -0.429400 0.000000 0.903100
vn -1.000000 -0.000000 -0.000000
vn -0.442300 0.000000 -0.896900
vn 0.000000 -1.000000 0.000000
vn 0.000000 1.000000 0.000000
vn 1.000000 0.000000 0.000000
vn -0.000000 -0.000000 1.000000
vn 0.000000 0.000000 -1.000000
vn -0.014600 0.999900 -0.000000
vn -0.020900 -0.999800 -0.000000
vn -0.022400 -0.999700 -0.000000
vn -0.015600 0.999900 -0.000000
vn 1.000000 -0.002700 0.000100
usemtl Material
s off
f 17/1/1 18/2/1 3/3/1 4/4/1
f 19/5/2 8/6/2 7/7/2 20/8/2
f 10/9/3 2/10/3 1/11/3 9/12/3
f 18/13/4 20/14/4 7/15/4 3/16/4
f 3/17/5 7/18/5 8/19/5 4/20/5
f 19/21/6 17/22/6 4/23/6 8/24/6
f 9/25/7 10/26/7 11/27/7 12/28/7
f 13/29/8 16/30/8 15/31/8 14/32/8
f 9/33/9 13/34/9 14/35/9 10/36/9
f 10/37/10 14/38/10 15/39/10 11/40/10
f 11/41/5 15/42/5 16/43/5 12/44/5
f 13/40/11 9/45/11 12/46/11 16/47/11
f 23/48/11 21/49/11 17/22/11 19/21/11
f 22/50/10 24/51/10 20/14/10 18/13/10
f 23/52/12 19/5/12 20/8/12 24/53/12
f 21/54/13 22/55/13 18/2/13 17/1/13
f 1/56/14 2/57/14 22/55/14 21/54/14
f 5/58/15 23/52/15 24/53/15 6/59/15
f 2/60/10 6/61/10 24/51/10 22/50/10
f 5/16/11 1/62/11 21/49/11 23/48/11
f 14/63/16 13/64/16 5/26/16 6/25/16
