# Blender v2.74 (sub 0) OBJ File: 'plafond2.blend'
# www.blender.org
mtllib plafond2.mtl
o Cube
v 2.102210 0.254967 -2.279749
v 2.102208 0.254967 2.255304
v -2.102210 0.254967 2.255302
v -2.102209 0.254967 -2.279750
v 2.255107 0.207086 -2.255105
v 2.255105 0.207086 2.255108
v -2.255106 0.207086 -2.255106
v -2.255107 0.207086 2.255105
vt 0.032105 0.003589
vt 0.968572 0.001668
vt 0.964888 0.996284
vt 0.038390 0.993182
vt 0.003218 0.992553
vt -0.002011 0.000099
vt 0.999688 -0.001670
vt 0.996782 0.995796
vn 0.000000 1.000000 -0.000000
vn 0.298800 0.954300 0.000000
vn -0.298800 0.954300 -0.000000
usemtl Material
s off
f 1/1/1 4/2/1 3/3/1 2/4/1
f 1/1/2 2/4/2 6/5/2 5/6/2
f 3/3/3 4/2/3 7/7/3 8/8/3
