# Blender v2.74 (sub 0) OBJ File: 'plafond5.blend'
# www.blender.org
mtllib plafond5.mtl
o Cube
v 2.264822 0.254967 -2.279284
v 2.264820 0.254967 2.255304
v -2.260500 0.254967 2.255302
v -2.260499 0.254967 -2.279285
v 2.255107 0.207086 -2.255105
v 2.255105 0.207086 2.255108
v -2.255106 0.207086 -2.255106
v -2.255107 0.207086 2.255105
vt 1.000312 0.969106
vt 0.002807 0.966006
vt 0.002807 -0.000111
vt 1.000311 -0.000111
vt 1.006549 0.006090
vt 0.999899 0.000100
vt 0.999900 0.999899
vt 0.000100 0.999900
vn 0.000000 1.000000 -0.000000
vn 0.980000 -0.198800 0.000000
vn 0.000000 -0.450800 -0.892600
usemtl Material
s off
f 1/1/1 4/2/1 3/3/1 2/4/1
f 1/1/2 2/5/2 6/6/2 5/7/2
f 4/2/3 1/1/3 5/7/3 7/8/3
l 3 8
